<?xml version="1.0" encoding="UTF-8"?>
<svg id="Ebene_2" data-name="Ebene 2" xmlns="http://www.w3.org/2000/svg" viewBox="0 0 207.8 199.03">
  <g id="Ebene_1-2" data-name="Ebene 1">
    <g>
      <path d="M127.21,53.22h35.48c2.6,0,4.76-2.16,4.76-4.76h0c0-1.3-.43-2.16-1.3-3.46L122.02,1.3c-1.3-.87-2.16-1.3-3.46-1.3h0c-2.6,0-4.76,2.16-4.76,4.76v35.05c0,7.36,6.06,13.41,13.41,13.41Z"/>
      <path d="M205.52,98.22l-3.89-3.89c-2.6-2.6-6.49-2.6-9.52,0l-51.49,51.49c-.43.43,0,.87,0,1.3v10.82c0,.87,0,1.73.87,1.73h11.25c.43,0,.87-.43,1.3-.43l51.49-51.06c3.03-3.46,3.03-7.36,0-9.95Z"/>
      <path d="M163.99,179.13h-30.72c-6.92,0-12.55-5.62-12.55-12.55v-23.36c0-3.46.87-6.92,3.89-9.09l41.1-41.1c1.3-1.3,2.16-3.03,2.16-4.76v-8.65c0-3.46-3.03-6.49-6.49-6.49h-47.6c-11.25,0-19.9-9.09-19.9-19.9V6.49c0-3.46-3.03-6.49-6.92-6.49H19.9C9.09,0,0,9.09,0,19.9v159.23c0,10.82,9.09,19.9,19.9,19.9h127.21c9.52,0,18.17-6.92,19.9-16.01.43-1.73-1.3-3.89-3.03-3.89ZM26.83,59.71c0-3.46,3.03-6.49,6.49-6.49h26.83c3.89,0,6.49,3.03,6.49,6.49v6.49c0,3.46-3.03,6.49-6.49,6.49h-26.83c-3.89,0-6.49-3.03-6.49-6.49v-6.49ZM93.89,145.81c0,3.46-3.03,6.49-6.49,6.49h-54.09c-3.89,0-6.49-3.03-6.49-6.49v-6.49c0-3.46,3.03-6.49,6.49-6.49h53.65c3.89,0,6.49,3.03,6.49,6.49v6.49h.43ZM107.31,106.01c0,3.46-3.03,6.49-6.49,6.49H33.32c-3.89,0-6.49-3.03-6.49-6.49v-6.49c0-3.46,3.03-6.49,6.49-6.49h67.07c3.89,0,6.49,3.03,6.49,6.49v6.49h.43Z"/>
    </g>
  </g>
</svg>