<?xml version="1.0" encoding="UTF-8"?>
<svg id="Ebene_2" data-name="Ebene 2" xmlns="http://www.w3.org/2000/svg" viewBox="0 0 186.05 203.76">
  <g id="Ebene_1-2" data-name="Ebene 1">
    <g>
      <path d="M29.61,59.03l-8.73-3.29c-7.98-3.01-16.88,1.03-19.89,9-3.01,7.98,1.03,16.88,9.01,19.88l19.61,7.39v-32.99h0Z"/>
      <path d="M146.14,65.39c-.09.31-.17.61-.26.92v107.07c0,2.97-1.22,5.69-3.16,7.63-1.94,1.95-4.67,3.16-7.63,3.16H56.01c.38-.63.74-1.29,1.01-2,.51-1.37.76-2.77.76-4.14,0-2.37-.73-4.68-2.04-6.62-1.32-1.94-3.21-3.49-5.57-4.38l-12.17-4.58h0c-1.37-.52-2.76-.76-4.14-.76-2.37,0-4.68.73-6.62,2.04-1.94,1.32-3.49,3.21-4.38,5.57-.51,1.37-.76,2.76-.76,4.14,0,2.38.73,4.69,2.04,6.62,1.32,1.93,3.21,3.49,5.57,4.38l12.17,4.58c1.37.52,2.77.76,4.14.76,2.37,0,4.68-.73,6.62-2.04.34-.23.65-.5.97-.77,9.73,8.18,24.95,16.23,47.62,16.77,47.35,1.12,59.94-33.96,66.79-72.42,0,0,16.34-73.68,17.45-77.57,5.54-19.47-28.79-25.34-39.32,11.64Z"/>
      <path d="M48.05,98.8V17.52h79.39v130.01H59.42c-.16,1.38-.47,2.76-.98,4.11-1.29,3.43-3.57,6.22-6.39,8.13-.74.5-1.52.94-2.32,1.32l2.33.88c3.43,1.29,6.22,3.58,8.13,6.4,1.56,2.29,2.53,4.94,2.85,7.71h72.04c.76,0,1.4-.3,1.91-.79.49-.5.79-1.15.79-1.91V2.7c0-.76-.29-1.4-.79-1.91-.5-.5-1.15-.79-1.91-.79H40.41c-.76,0-1.41.29-1.91.79-.49.5-.78,1.15-.79,1.91v91.78l7.07,2.65c1.17.45,2.26,1.01,3.27,1.67ZM87.74,167.44c-2.61,0-4.72-2.12-4.72-4.72s2.11-4.72,4.72-4.72,4.72,2.11,4.72,4.72-2.12,4.72-4.72,4.72Z"/>
      <path d="M38.26,156.6c1.37.51,2.77.76,4.14.76,2.37,0,4.68-.73,6.62-2.04,1.94-1.32,3.49-3.21,4.38-5.57.51-1.37.76-2.77.76-4.14,0-2.37-.73-4.68-2.04-6.62-1.32-1.94-3.21-3.49-5.57-4.38l-12.17-4.59c-1.37-.51-2.76-.76-4.14-.76-2.37,0-4.68.73-6.62,2.04-1.94,1.32-3.49,3.21-4.38,5.58-.52,1.37-.76,2.76-.76,4.14,0,2.37.73,4.68,2.04,6.62,1.32,1.94,3.21,3.48,5.57,4.38l12.17,4.58Z"/>
      <path d="M34.59,124.17c1.37.53,2.77.76,4.14.76,2.37,0,4.69-.72,6.62-2.04,1.93-1.32,3.49-3.21,4.38-5.56.52-1.38.76-2.77.76-4.15,0-2.36-.72-4.68-2.04-6.62-1.32-1.93-3.21-3.48-5.58-4.38l-12.17-4.58c-1.37-.52-2.77-.76-4.14-.76-2.37,0-4.68.73-6.62,2.05-1.93,1.31-3.49,3.21-4.38,5.57-.51,1.37-.76,2.76-.76,4.14,0,2.37.73,4.68,2.04,6.62,1.32,1.93,3.21,3.49,5.57,4.38l12.17,4.58Z"/>
      <path d="M81.34,75.03l4.29-2.76c1.38-.88,1.78-2.71.89-4.08l-6.07-9.46c-.88-1.37-2.71-1.77-4.08-.89-.03.02-.51.33-5.7,3.66-6.05,3.88-2.8,20.52,5.84,33.99,8.64,13.46,22.42,23.35,28.46,19.46,5.2-3.33,5.67-3.64,5.7-3.66,1.37-.88,1.77-2.71.89-4.08l-6.07-9.46c-.88-1.37-2.71-1.77-4.08-.89l-4.29,2.75c-1.25.8-2.91.55-3.86-.59,0,0-2.88-2.95-7.19-9.67-4.3-6.71-5.79-10.57-5.79-10.57-.64-1.34-.18-2.95,1.07-3.75Z"/>
    </g>
  </g>
</svg>