<?xml version="1.0" encoding="UTF-8"?>
<svg id="Ebene_2" data-name="Ebene 2" xmlns="http://www.w3.org/2000/svg" viewBox="0 0 153.89 211.4">
  <g id="Ebene_1-2" data-name="Ebene 1">
    <path d="M140.14,129.84l-14-33.58c-2.07-4.93-6.87-8.43-12.58-8.43H41.33c-5.71,0-10.5,3.5-12.58,8.43l-14.13,33.58c-7.91,2.2-13.74,9.34-13.74,18.02v39.42h12.19v12.06c0,6.74,5.45,12.06,12.06,12.06s12.06-5.32,12.06-12.06v-12.06h80.27v12.06c0,6.74,5.32,12.06,12.06,12.06s12.06-5.32,12.06-12.06v-12.06h12.32v-39.42c0-8.69-5.84-15.82-13.74-18.02ZM38.87,100.14c.52-1.43,1.95-2.46,3.5-2.46h70.02c1.69,0,3.11,1.04,3.63,2.46l12.06,29.05H26.81l12.06-29.05ZM25.9,165.63c-6.74,0-12.19-5.45-12.19-12.19s5.45-12.19,12.19-12.19,12.19,5.45,12.19,12.19-5.45,12.19-12.19,12.19ZM128.08,165.63c-6.74,0-12.19-5.45-12.19-12.19s5.45-12.19,12.19-12.19,12.19,5.45,12.19,12.19-5.45,12.19-12.19,12.19Z"/>
    <path d="M145.03,0H0v70.22h145.03V0ZM138.14,48.48c-7.06,1.78-12.39,7.63-14.28,13.48H21.17c-1.78-5.85-7.17-11.59-14.17-13.48v-26.91c7.06-1.78,12.28-7.52,14.17-14.51h102.58c1.66,7,7.29,12.74,14.4,14.51v26.91Z"/>
    <path d="M72.63,11.02c-13.31,0-24.21,10.73-24.21,24.21s10.9,24.21,24.21,24.21,24.21-10.73,24.21-24.21-10.9-24.21-24.21-24.21ZM74.73,53.44c-5.79,0-11.03-2.15-14.32-6.21-1.58-1.83-2.75-4.17-3.32-7.04h-3.78v-3.87h3.23v-.89c0-.55.06-1.11.08-1.63h-3.3v-3.87h3.95c.72-2.96,2.16-5.46,4.05-7.43,3.31-3.51,8-5.55,13.56-5.55,3.53,0,6.66.75,8.8,1.64l-1.66,6.2c-1.52-.64-3.95-1.34-6.53-1.34-2.81,0-5.38.91-7.19,2.98-.85.87-1.47,2.1-1.87,3.52h14.61v3.87h-15.5c-.07.52-.08,1.1-.08,1.67v.85h15.58v3.87h-14.76c.39,1.62,1.08,2.89,1.96,3.81,1.88,1.93,4.6,2.77,7.57,2.77,2.68,0,5.41-.83,6.68-1.44l1.4,6.04c-1.97,1.05-5.41,2.08-9.15,2.08Z"/>
    <path d="M152.31,79.31l-2.52-70.17-3.51.13v62.05h-15.27c-.05.17-.1.33-.15.5l-102.62,3.69c-.49-1.43-1.2-2.85-2.1-4.19H6.91l.47,13.21,144.93-5.21Z"/>
  </g>
</svg>